<svg width="25" height="25" viewBox="0 0 25 25" fill="none" xmlns="http://www.w3.org/2000/svg">
<g id="Group">
<path id="Vector" d="M22.8199 16.6327V4.31388V4.3141C22.8199 3.86723 22.6423 3.43895 22.3266 3.12305C22.0107 2.80714 21.5822 2.62972 21.1356 2.62972H19.5532V1.65615C19.5532 1.33338 19.4249 1.02412 19.1964 0.796004C18.9678 0.568147 18.6581 0.440502 18.3356 0.441165H18.0513C17.7286 0.440501 17.4188 0.568147 17.1903 0.796004C16.962 1.02408 16.8335 1.33336 16.8335 1.65615V2.6218L13.0117 2.62157V1.65615C13.0117 1.33383 12.8838 1.02481 12.6559 0.797142C12.4281 0.569285 12.119 0.441192 11.7967 0.441192H11.5286C11.2063 0.441192 10.8972 0.569279 10.6694 0.797142C10.4415 1.02478 10.3136 1.33383 10.3136 1.65615V2.6218L6.47828 2.62158V1.65616C6.47828 1.33206 6.34886 1.02147 6.11857 0.793184C5.88849 0.565105 5.57657 0.438344 5.25248 0.441221H4.98435C4.66159 0.440557 4.35188 0.568203 4.12359 0.79606C3.89506 1.02414 3.76676 1.33341 3.76676 1.6562V2.62185H2.18437V2.62163C1.73773 2.62163 1.30922 2.79927 0.993325 3.11495C0.67742 3.43086 0.5 3.8594 0.5 4.306V21.0847C0.500885 21.5311 0.678525 21.9591 0.994214 22.2749C1.3099 22.5905 1.73798 22.7682 2.18441 22.7691H16.6836C17.4545 23.7557 18.6115 24.3645 19.8614 24.4409C21.1113 24.5172 22.334 24.054 23.2196 23.1686C24.1049 22.2831 24.5682 21.0603 24.4919 19.8105C24.4155 18.5606 23.8067 17.4036 22.8201 16.6326L22.8199 16.6327ZM1.02813 6.84594H22.2831V8.06887L1.02813 8.06909V6.84594ZM17.3696 2.89001V1.65626C17.3711 1.28107 17.6758 0.977796 18.0509 0.977796H18.3352C18.7104 0.977796 19.0148 1.28109 19.0163 1.65626V4.79962H17.3696L17.3696 2.89001ZM10.8364 2.89001V1.65626C10.8379 1.28217 11.1408 0.979098 11.5149 0.977796H11.7832C12.1573 0.979123 12.4601 1.2822 12.4617 1.65626V4.79962H10.8364L10.8364 2.89001ZM4.29472 2.89001V1.65626C4.29539 1.47464 4.36861 1.30076 4.49802 1.17333C4.62744 1.04591 4.80243 0.975559 4.98405 0.977773H5.25217C5.62737 0.977773 5.93199 1.28107 5.93352 1.65624V4.79959H4.29468L4.29472 2.89001ZM1.02813 4.30606C1.02813 4.00166 1.14892 3.70966 1.36417 3.4944C1.57964 3.27915 1.87143 3.15814 2.17606 3.15814H3.75844V5.06775C3.75844 5.13898 3.78654 5.20711 3.83698 5.25756C3.88719 5.30777 3.95533 5.33609 4.02657 5.33609H6.20982C6.28084 5.33609 6.34919 5.30777 6.39941 5.25756C6.44963 5.20712 6.47795 5.13898 6.47795 5.06775V3.15814H10.2998V5.06775C10.2998 5.13898 10.3281 5.20711 10.3783 5.25756C10.4287 5.30777 10.4969 5.33609 10.5681 5.33609H12.7432C12.8142 5.33609 12.8825 5.30777 12.9327 5.25756C12.983 5.20712 13.0113 5.13898 13.0113 5.06775V3.15814H16.8331V5.06775C16.8331 5.13898 16.8614 5.20711 16.9119 5.25756C16.9621 5.30777 17.0302 5.33609 17.1014 5.33609H19.2847C19.3557 5.33609 19.4239 5.30777 19.4743 5.25756C19.5245 5.20712 19.5528 5.13898 19.5528 5.06775V3.15814H21.1352C21.4396 3.15814 21.7316 3.27915 21.9469 3.4944C22.1621 3.70965 22.2831 4.00166 22.2831 4.30606V6.30945L1.02821 6.30967L1.02813 4.30606ZM2.17608 22.2327C1.87146 22.2327 1.57968 22.1117 1.36419 21.8964C1.14894 21.6812 1.02815 21.3892 1.02815 21.0847V8.6051H22.2831V16.2675L22.2481 16.2514C22.122 16.1793 21.9924 16.1138 21.8592 16.0556L21.7895 16.0288C21.6687 15.978 21.5429 15.9324 21.4168 15.8921L21.3442 15.8705C21.2075 15.8302 21.0761 15.7981 20.9232 15.7711L20.8294 15.755L20.6363 15.7255V10.5144C20.6363 10.4434 20.608 10.3753 20.5578 10.3248C20.5073 10.2746 20.4392 10.2463 20.368 10.2463H2.93463H2.93485C2.78663 10.2463 2.6665 10.3664 2.6665 10.5144V19.2308C2.6665 19.302 2.69482 19.3702 2.74504 19.4206C2.79547 19.4708 2.86361 19.4991 2.93485 19.4991H15.7815C15.7538 19.6883 15.7394 19.8792 15.7386 20.0703C15.7386 20.1776 15.7386 20.2849 15.7521 20.3922V20.4942C15.7521 20.5665 15.7682 20.6391 15.7788 20.7114C15.7894 20.7838 15.7923 20.7893 15.7976 20.8267C15.8029 20.8643 15.8244 20.9634 15.8405 21.0333L15.8647 21.1406C15.8835 21.2185 15.9076 21.2961 15.929 21.3713L15.9531 21.4463C15.9852 21.5457 16.0228 21.6448 16.0631 21.7414C16.0631 21.7682 16.0872 21.795 16.1007 21.822C16.1301 21.8917 16.1624 21.9587 16.1971 22.0286C16.2321 22.0983 16.2348 22.0983 16.2536 22.1359C16.2724 22.1735 16.2856 22.2003 16.3044 22.2323L2.17608 22.2327ZM7.03061 14.6048H3.20856V10.7829H7.03038L7.03061 14.6048ZM3.20878 15.1412H7.03038V18.9631H3.20856L3.20878 15.1412ZM11.3889 14.6048H7.56681V10.7829H11.3886L11.3889 14.6048ZM7.56703 15.1412H11.3886V18.9631H7.56681L7.56703 15.1412ZM20.1056 14.6048H16.2835V10.7829H20.1054L20.1056 14.6048ZM15.7473 14.6048H11.9252V10.7829H15.747L15.7473 14.6048ZM11.9255 15.1412H15.7444V18.9631H11.9252L11.9255 15.1412ZM16.2835 17.968V15.1412H20.1054V15.6936C19.9901 15.6936 19.8773 15.6936 19.7647 15.7098H19.6682C19.5824 15.7098 19.4992 15.7204 19.4187 15.7419L19.3034 15.7633C19.2229 15.7633 19.1426 15.7954 19.0621 15.8169L18.9683 15.841C18.8583 15.8704 18.751 15.9027 18.6437 15.9403L18.6061 15.9564C18.5114 15.9923 18.4221 16.0297 18.338 16.069L18.2387 16.1173C18.169 16.1494 18.0993 16.1843 18.0294 16.2246L17.933 16.2781C17.858 16.321 17.7854 16.3666 17.7131 16.4148L17.6434 16.4661C17.5522 16.5279 17.4611 16.5949 17.3752 16.6646L17.3215 16.7343C17.2571 16.7878 17.1954 16.8442 17.1337 16.9033L17.0505 16.9812L16.8897 17.1502L16.8173 17.2307C16.753 17.3057 16.6886 17.3862 16.6269 17.4667L16.608 17.4909C16.541 17.582 16.4793 17.6731 16.4202 17.759C16.4014 17.7857 16.3853 17.818 16.3667 17.8475C16.3479 17.8769 16.305 17.9251 16.2835 17.968L16.2835 17.968ZM20.1215 23.9088C19.0858 23.9363 18.0828 23.5438 17.3404 22.8208C16.5982 22.0979 16.1794 21.1057 16.1794 20.0695C16.1794 19.0333 16.5982 18.0411 17.3404 17.3182C18.0828 16.5952 19.0858 16.2028 20.1215 16.2302H20.3549C20.4622 16.2302 20.5695 16.249 20.6768 16.2651C21.2983 16.3541 21.8876 16.5974 22.3906 16.973C23.2656 17.615 23.8277 18.5977 23.9376 19.6773C24.0474 20.757 23.6947 21.8327 22.9667 22.6376C22.2388 23.4427 21.2042 23.9017 20.1189 23.9008L20.1215 23.9088Z" fill="#4498D6"/>
<path id="Vector_2" d="M21.9777 17.5388C21.4935 17.1804 20.9161 16.9701 20.3148 16.9327H20.1217C19.4018 16.9351 18.7043 17.1842 18.1459 17.6386C17.5876 18.093 17.202 18.7253 17.0535 19.4299C17.0104 19.6407 16.9889 19.8555 16.9892 20.0707C16.9843 20.7371 17.1949 21.3872 17.5898 21.9241C18.1351 22.6496 18.968 23.1028 19.873 23.1667C20.7782 23.2309 21.6666 22.8993 22.3084 22.2577C22.9504 21.6164 23.2824 20.7279 23.219 19.8229C23.1555 18.9177 22.7026 18.0846 21.9777 17.5388H21.9777ZM20.1217 22.667C19.2934 22.6624 18.5167 22.2641 18.0298 21.5941C17.6997 21.1499 17.5219 20.6108 17.5227 20.0572C17.5225 19.8772 17.5407 19.6975 17.5765 19.521C17.7004 18.9372 18.0205 18.4135 18.4838 18.0373C18.9468 17.661 19.5251 17.4548 20.1217 17.453H20.2828C20.7803 17.4833 21.2584 17.6574 21.6585 17.9548C22.2501 18.3895 22.6299 19.0542 22.704 19.7845C22.7782 20.5148 22.5397 21.2424 22.0474 21.787C21.5554 22.3317 20.8557 22.6427 20.1217 22.6429L20.1217 22.667Z" fill="#4498D6"/>
<path id="Vector_3" d="M20.3898 17.767H19.8534V19.9958C19.8529 20.0768 19.8896 20.1538 19.9527 20.2049L21.0524 21.0818L21.3875 20.6634L20.3898 19.8589L20.3898 17.767Z" fill="#4498D6"/>
</g>
</svg>
